# xmcd
#
# Track frame offsets:
#	150
#	16621
#	29266
#	41072
#	68198
#	82364
#	90950
#	106154
#	121225
#	135873
#	156810
#	173134
#	183792
#	198969
#
# Disc length: 2840 seconds
#
# Revision: 0
# Processed by: cddbd v1.5.2PL0 Copyright (c) Steve Scherf et al.
# Submitted via: dBpowerAMP V4.0
#
DISCID=a30b160e
DTITLE=Brian Wright - House on Fire
DYEAR=2011
DGENRE=Singer-Songwriter
TTITLE0=Striking Matches
TTITLE1=Blind April
TTITLE2=Live Again
TTITLE3=Accordion
TTITLE4=Mes o thelioma
TTITLE5=Mean Ol' Wind
TTITLE6=The Good Dr.
TTITLE7=Still Got You
TTITLE8=Rich Man's Blues
TTITLE9=Maria Sugarcane
TTITLE10=Pretty Little Pennies
TTITLE11=Had Enough
TTITLE12=If You Stay
TTITLE13=Friend
EXTD=Ripped for WUVT-FM
EXTT0=
EXTT1=
EXTT2=
EXTT3=
EXTT4=
EXTT5=
EXTT6=
EXTT7=
EXTT8=
EXTT9=
EXTT10=
EXTT11=
EXTT12=
EXTT13=
PLAYORDER=
